<svg xmlns="http://www.w3.org/2000/svg" width="35" height="35" viewBox="0 0 35 35">
    <g fill="none" fill-rule="evenodd">
        <circle cx="17.5" cy="17.5" r="17.5" fill="#FFF"/>
        <path fill="#000" d="M19.13 10.53c-.38 0-.68-.115-.9-.345-.22-.23-.33-.535-.33-.915 0-.54.185-1.025.555-1.455.37-.43.815-.645 1.335-.645.4 0 .685.13.855.39.17.26.255.59.255.99 0 .5-.17.955-.51 1.365-.34.41-.76.615-1.26.615zM17.6 24.54a3.617 3.617 0 0 0-.09.6c0 .24.12.36.36.36.14 0 .285-.035.435-.105.15-.07.3-.15.45-.24l.405-.24c.12-.07.22-.105.3-.105.2 0 .34.2.42.6-.34.26-.705.505-1.095.735-.39.23-.765.435-1.125.615s-.7.325-1.02.435c-.32.11-.58.165-.78.165-.22 0-.43-.045-.63-.135-.2-.09-.3-.305-.3-.645 0-.06.01-.165.03-.315.02-.15.04-.255.06-.315l1.05-5.115c.26-1.27.455-2.24.585-2.91.13-.67.215-1.115.255-1.335.04-.22.06-.35.06-.39 0-.24-.09-.36-.27-.36-.08 0-.2.035-.36.105-.16.07-.33.14-.51.21-.18.07-.345.14-.495.21-.15.07-.265.105-.345.105-.12 0-.21-.06-.27-.18-.06-.12-.11-.26-.15-.42a61.47 61.47 0 0 1 2.655-1.38 18 18 0 0 1 1.2-.54c.35-.14.585-.21.705-.21.34 0 .51.17.51.51 0 .14-.02.29-.06.45l-1.98 9.84z"/>
    </g>
</svg>
